<svg width="80" height="81" viewBox="0 0 80 81" fill="none" xmlns="http://www.w3.org/2000/svg">
<path d="M68 40.1416C68 55.6056 55.464 68.1416 40 68.1416C24.536 68.1416 12 55.6056 12 40.1416C12 24.6776 24.536 12.1416 40 12.1416C55.464 12.1416 68 24.6776 68 40.1416Z" fill="url(#paint0_linear_13259_5690)"/>
<path d="M52.1381 31.5315C51.4904 31.015 50.5466 31.1214 50.0301 31.7692L36.9464 48.178C36.7604 48.4113 36.4128 48.4308 36.2019 48.2199L29.8649 41.8829C29.2791 41.2971 28.3294 41.2971 27.7436 41.8829C27.1578 42.4687 27.1578 43.4184 27.7436 44.0042L34.0806 50.3412C35.5572 51.8178 37.9901 51.6811 39.292 50.0483L52.3757 33.6395C52.8922 32.9918 52.7858 32.048 52.1381 31.5315Z" fill="white"/>
<defs>
<linearGradient id="paint0_linear_13259_5690" x1="40" y1="68.1416" x2="40" y2="12.1416" gradientUnits="userSpaceOnUse">
<stop stop-color="#7DBA6E"/>
<stop offset="0.9531" stop-color="#C6E99A"/>
</linearGradient>
</defs>
</svg>
